<?xml version="1.0" encoding="UTF-8"?>
<svg id="Layer_1" xmlns="http://www.w3.org/2000/svg" version="1.1" viewBox="0 0 90 90">
  <!-- Generator: Adobe Illustrator 29.1.0, SVG Export Plug-In . SVG Version: 2.1.0 Build 142)  -->
  <defs>
    <style>
      .st0, .st1 {
        fill: #749bbf;
      }

      .st2, .st3 {
        fill: #324660;
      }

      .st4 {
        fill: #486688;
      }

      .st5 {
        fill: #d0e6fb;
      }

      .st5, .st1 {
        isolation: isolate;
        opacity: .5;
      }

      .st6, .st7 {
        fill: #f1f1f1;
      }

      .st6, .st3 {
        fill-rule: evenodd;
      }

      .st8 {
        fill: #dad8d6;
      }

      .st9 {
        fill: #aed0f0;
      }

      .st10 {
        fill: #f8f8f8;
      }
    </style>
  </defs>
  <path class="st2" d="M38,57h14v16h-14v-16Z"/>
  <path class="st4" d="M38,68.5c4.5-1.6,9.5-1.6,14,0v3.5h-14v-3.5Z"/>
  <path class="st2" d="M0,23c0-3.3,2.7-6,6-6h78c3.3,0,6,2.7,6,6v13c0,3.3-2.7,6-6,6H6c-3.3,0-6-2.7-6-6v-13Z"/>
  <path class="st4" d="M6,17c-3.3,0-6,2.7-6,6v13c0,1.4.5,2.6,1.2,3.6,4.3-3.1,6.8-8.1,6.8-13.3v-9.3h-2ZM82,17v9.3c0,5.3,2.6,10.3,6.8,13.3.8-1,1.2-2.3,1.2-3.6v-13c0-3.3-2.7-6-6-6h-2Z"/>
  <path class="st0" d="M0,35v-12c0-3.3,2.7-6,6-6h1,0c-2.8,1.5-4.7,4.2-5.2,7.3l-1.7,10.7ZM90,35v-12c0-3.3-2.7-6-6-6h-1,0c2.8,1.5,4.7,4.2,5.2,7.3l1.7,10.7Z"/>
  <path class="st8" d="M19.7,79.3c1.5-3.5,4.7-6.1,8.4-6.7,11.2-1.8,22.6-1.8,33.8,0,3.8.6,7,3.1,8.4,6.7l2.7,6.5c-18.3,5.4-37.7,5.4-56,0,0,0,2.7-6.5,2.7-6.5Z"/>
  <path class="st6" d="M62.2,72.7c3.6.7,6.6,3,8.1,6.4-15.6-9-34.9-9-50.5,0,1.5-3.3,4.5-5.7,8.1-6.4,11.4-1.7,23-1.7,34.3,0Z"/>
  <path class="st7" d="M10,8C10,3.6,13.6,0,18,0h54c4.4,0,8,3.6,8,8v49c0,4.4-3.6,8-8,8H18c-4.4,0-8-3.6-8-8V8Z"/>
  <path class="st10" d="M10,32V8C10,3.6,13.6,0,18,0h44L20.3,1.1c-4.6.1-8.4,3.8-8.7,8.4l-1.5,22.5ZM80,33v24c0,4.4-3.6,8-8,8H28l42.6-1.1c4.1-.1,7.5-3.3,7.8-7.5l1.6-23.5Z"/>
  <path class="st9" d="M18,10c0-1.1.9-2,2-2h50c1.1,0,2,.9,2,2v45c0,1.1-.9,2-2,2H20c-1.1,0-2-.9-2-2V10Z"/>
  <path class="st1" d="M72,10v45c0,1.1-.9,2-2,2H20l40.7-1.5c5.2-.2,9.4-4.3,9.6-9.5l1.7-35.9Z"/>
  <path class="st5" d="M20,46.2V10h47.2l-22.4,2.2c-10,1-18.3,8.1-20.7,17.8l-4.1,16.2Z"/>
  <path class="st2" d="M41,25c0,2.8-2.3,5-4.9,5s-5.1-2.2-5.1-5,2.3-5,5.1-5c2.7,0,4.9,2.2,4.9,5h0ZM59.3,25c0,2.8-2.3,5-5.1,5s-4.9-2.2-4.9-5,2.3-5,4.9-5c2.8,0,5.1,2.2,5.1,5Z"/>
  <path class="st3" d="M57.9,49.2c-8.1-5.3-17.9-7.3-27.5-5.5l-1-5.2c10.9-2,22.1.2,31.4,6.3,0,0-2.9,4.5-2.9,4.5Z"/>
  <path class="st3" d="M42.3,16.9c-4.1-1.6-8.7-1.6-12.7,0l-.9-2.2c4.7-1.9,9.9-1.9,14.5,0,0,0-.9,2.3-.9,2.3Z"/>
  <path class="st3" d="M60.7,20.7c-4.1-1.7-8.6-1.7-12.7,0l-.9-2.3c4.7-1.8,9.9-1.8,14.5,0,0,0-.9,2.2-.9,2.2Z"/>
</svg>