<?xml version="1.0" encoding="UTF-8"?>
<svg id="Layer_2" xmlns="http://www.w3.org/2000/svg" viewBox="0 0 92.2 67.82">
  <defs>
    <style>
      .cls-1 {
        fill: #1f1814;
      }

      .cls-2 {
        fill: #c63010;
      }

      .cls-3 {
        fill: #0a0808;
      }

      .cls-4 {
        fill: #fff;
      }

      .cls-5 {
        fill: #f13a11;
      }

      .cls-6 {
        fill: #a75844;
      }
    </style>
  </defs>
  <g id="DESIGNED_BY_FREEPIK">
    <g>
      <path class="cls-2" d="M44.65,40.48s20.41,19.83,32.27,20.02c11.86.19,11.66-7.19,9.14-10.11,0,0,.19,5.25-5.05,4.67-5.25-.58-5.05-9.14,2.14-10.3,7.19-1.17,11.86,9.72,7.19,16.52-4.67,6.8-19.05,6.61-33.44-3.11-14.38-9.72-20.61-16.91-20.61-16.91v-4.47l8.36,3.69Z"/>
      <path class="cls-5" d="M32.4,34.65s0,5.44-3.11,7.97c-3.11,2.53-4.47,3.5-3.69,4.67.78,1.17,5.05,2.72,5.83,5.25.78,2.53.19,12.05,1.36,13.61,1.17,1.56,3.5,2.92,4.47-.19.97-3.11.39-28.77.39-28.77l-5.25-2.53Z"/>
      <path class="cls-5" d="M30.65,24.54s-25.27-1.36-28.58,0c-3.3,1.36-2.72,7,2.14,7.19,4.86.19,27.02.58,27.02.58l-.58-7.78Z"/>
      <path class="cls-2" d="M4.41,7.63c-5.3-1.39-6.03,4.67.19,6.41s19.63,3.89,28.96-1.17c9.33-5.05,17.3-7.97,28.38-6.22,11.08,1.75,14,4.86,16.33,5.25s5.25-4.08,1.36-6.61S60.98-1.9,47.76.83c-13.22,2.72-15.16,7.19-22.74,8.36-7.58,1.17-12.44.58-20.61-1.56Z"/>
      <path class="cls-5" d="M27.15,29.79c0,1.95,8.55,13.22,28.58,13.22s27.21-14.38,27.02-16.52c-.19-2.14-6.61-13.8-27.6-13.8s-27.99,13.22-27.99,17.11Z"/>
      <path class="cls-4" d="M34.93,29.25c0,1.41,6.16,9.52,20.58,9.52s19.6-10.36,19.46-11.9-4.76-9.94-19.88-9.94-20.16,9.52-20.16,12.32Z"/>
      <circle class="cls-3" cx="54.85" cy="27.75" r="10.59" transform="translate(15.25 74.76) rotate(-76.72)"/>
      <circle class="cls-1" cx="54.85" cy="27.75" r="5.93"/>
      <path class="cls-6" d="M13.64,25.35c-3-.51-6.88-.53-9.79.48-.42.15-.36.78.11.79,1.58.02,3.15-.02,4.73.06,1.67.09,3.29.33,4.95.08.7-.11.69-1.29,0-1.41Z"/>
      <path class="cls-6" d="M18.38,25.33c-.77-.12-1.41,0-2.07.4-.3.18-.2.73.19.7.65-.05,1.25-.15,1.88-.3.38-.09.41-.74,0-.8Z"/>
      <path class="cls-6" d="M33.99,59.34c-.05-.57-.82-.56-.88,0-.16,1.56-.65,3.33.08,4.81.27.56,1.12.27,1.12-.3,0-1.48-.2-3.02-.32-4.5Z"/>
      <path class="cls-6" d="M78.24,22.15c-2.08-3.62-7.35-5.25-11.24-5.68-.47-.05-.56.71-.11.81,1.96.44,3.77,1.16,5.51,2.17,1.78,1.03,3.12,2.6,4.85,3.69.63.4,1.35-.38,1-1Z"/>
      <path class="cls-6" d="M79.89,23.62c-.35-.34-.95,0-.82.48.19.69.26,1.47.72,2.04.24.3.71.17.89-.11.55-.85-.19-1.81-.78-2.4Z"/>
      <path class="cls-5" d="M72.66,4.13c-4.22-1.53-9.38-2.15-13.86-1.96-.52.02-.52.79,0,.8,4.74.17,9.02,2.17,13.67,2.57.85.07.9-1.15.19-1.41Z"/>
      <path class="cls-5" d="M76.66,6.75c-.36-.37-.93-.34-1.38-.56-.45-.22-.98.36-.56.73.47.42,1.22.96,1.85.56.25-.16.31-.51.09-.73Z"/>
      <path class="cls-5" d="M81.95,47.21c-1.02-.03-1.84.89-2.34,1.69-.51.81-.34,2,.35,2.63.31.28.99.12.92-.38-.09-.68-.01-1.05.46-1.56.48-.52,1.02-.77,1.3-1.46.19-.45-.27-.89-.69-.91Z"/>
      <path class="cls-5" d="M85.65,46.8c-.53-.43-1.14-.22-1.7.05-.54.26-.14,1.03.39.92.41-.09.85-.01,1.22-.25.22-.15.33-.52.09-.71Z"/>
      <path class="cls-1" d="M55.38,19.86c-.07-.3-.07-.63-.32-.84-.17-.14-.4-.17-.57,0-.24.24-.23.55-.24.88-.01.39.06.74.4.98.16.11.43.08.55-.07.24-.28.25-.59.18-.94Z"/>
      <path class="cls-1" d="M51.14,20.62c-.26-.26-.77,0-.64.37.17.48.37,1.05.96,1.09.23.01.43-.21.43-.43,0-.48-.45-.73-.75-1.03Z"/>
      <path class="cls-1" d="M48.51,24.71c-.27-.27-.64-.41-1.02-.44-.17-.02-.33.19-.27.35.17.42.55.73,1.02.73.33,0,.5-.41.27-.64Z"/>
      <path class="cls-1" d="M47.82,28.21c-.24-.44-.77-.41-1.2-.32-.5.1-.34.81.11.84.29.02.57.16.85.06.24-.09.36-.34.23-.57Z"/>
      <path class="cls-1" d="M49.09,31.74c-.16.05-.32.12-.47.21-.1-.02-.22,0-.3.09-.21.22-.31.35-.24.67.05.25.38.45.62.35.35-.14.72-.31.89-.67.16-.33-.1-.76-.5-.65Z"/>
      <path class="cls-1" d="M51.95,34.2c-.14.34-.42.68-.31,1.06.05.18.26.32.45.25.42-.16.52-.59.62-.99.12-.44-.57-.76-.76-.32Z"/>
      <path class="cls-1" d="M55.86,35.29c-.07-.37-.7-.29-.67.09.03.33.05.6.19.9.14.31.53.1.56-.15.04-.29-.03-.55-.08-.84Z"/>
      <path class="cls-1" d="M60,34.46c-.24-.4-.66-.63-1-.94-.35-.33-.8.15-.52.52.3.38.64.81,1.13.93.29.07.54-.24.38-.5Z"/>
      <path class="cls-1" d="M62.97,30.88c-.29-.46-.95-.49-1.44-.5-.36,0-.56.56-.2.73.41.19.92.53,1.38.4.26-.07.4-.39.26-.63Z"/>
      <path class="cls-1" d="M63.58,26.5c-.38-.07-.7.03-1.08.07-.59.06-.57.83,0,.9.41.05.84.07,1.18-.19.26-.2.31-.71-.1-.78Z"/>
      <path class="cls-1" d="M61.99,22.2c-.37.18-.64.49-.98.73-.41.29-.06.89.39.67.43-.21.88-.45,1.08-.9.15-.34-.16-.66-.5-.5Z"/>
      <path class="cls-1" d="M58.81,20.48c-.03.26-.08.53-.12.78-.05.32.31.47.51.21.24-.32.31-.61.34-1,.03-.48-.67-.45-.73,0Z"/>
    </g>
  </g>
</svg>